<svg width="72" height="72" viewBox="0 0 72 72" fill="none" xmlns="http://www.w3.org/2000/svg">
<circle cx="36" cy="36" r="36" fill="#EA1D5D"/>
<path d="M45.9998 48.5H45.8298C26.1798 47.37 23.3898 30.79 22.9998 25.73C22.9683 25.3366 23.0148 24.9408 23.1366 24.5654C23.2584 24.19 23.4531 23.8423 23.7095 23.5423C23.9659 23.2422 24.2789 22.9957 24.6308 22.8168C24.9826 22.638 25.3663 22.5303 25.7598 22.5H31.2698C31.6703 22.4996 32.0618 22.6195 32.3934 22.8442C32.725 23.0688 32.9816 23.3879 33.1298 23.76L34.6498 27.5C34.7961 27.8635 34.8324 28.2621 34.7542 28.6461C34.676 29.0301 34.4867 29.3827 34.2098 29.66L32.0798 31.81C32.4125 33.7007 33.3179 35.4437 34.6737 36.803C36.0294 38.1622 37.7699 39.0723 39.6598 39.41L41.8298 37.26C42.1113 36.9862 42.4671 36.8013 42.853 36.7283C43.2389 36.6554 43.6378 36.6977 43.9998 36.85L47.7698 38.36C48.1363 38.5129 48.449 38.7714 48.668 39.1027C48.8871 39.4339 49.0026 39.8229 48.9998 40.22V45.5C48.9998 46.2956 48.6837 47.0587 48.1211 47.6213C47.5585 48.1839 46.7954 48.5 45.9998 48.5ZM25.9998 24.5C25.7345 24.5 25.4802 24.6054 25.2927 24.7929C25.1051 24.9804 24.9998 25.2348 24.9998 25.5V25.58C25.4598 31.5 28.4098 45.5 45.9398 46.5C46.0711 46.5081 46.2028 46.4902 46.3273 46.4473C46.4517 46.4045 46.5665 46.3374 46.6649 46.2501C46.7634 46.1628 46.8437 46.0568 46.9011 45.9384C46.9586 45.82 46.9921 45.6914 46.9998 45.56V40.22L43.2298 38.71L40.3598 41.56L39.8798 41.5C31.1798 40.41 29.9998 31.71 29.9998 31.62L29.9398 31.14L32.7798 28.27L31.2798 24.5H25.9998Z" fill="white"/>
</svg>
