<svg width="68" height="100" viewBox="0 0 68 100" fill="none" xmlns="http://www.w3.org/2000/svg">
<path d="M17.1617 100C26.3617 100 33.8284 92.5334 33.8284 83.3334V66.6667H17.1617C7.96172 66.6667 0.495056 74.1334 0.495056 83.3334C0.495056 92.5334 7.96172 100 17.1617 100Z" fill="#0ACF83"/>
<path d="M0.495056 49.9999C0.495056 40.7999 7.96172 33.3333 17.1617 33.3333H33.8284V66.6665H17.1617C7.96172 66.6665 0.495056 59.1999 0.495056 49.9999Z" fill="#A259FF"/>
<path d="M0.495056 16.6667C0.495056 7.46666 7.96172 0 17.1617 0H33.8284V33.3333H17.1617C7.96172 33.3333 0.495056 25.8667 0.495056 16.6667Z" fill="#F24E1E"/>
<path d="M33.8284 0H50.4951C59.6951 0 67.1618 7.46666 67.1618 16.6667C67.1618 25.8667 59.6951 33.3333 50.4951 33.3333H33.8284V0Z" fill="#FF7262"/>
<path d="M67.1618 49.9999C67.1618 59.1999 59.6951 66.6665 50.4951 66.6665C41.295 66.6665 33.8284 59.1999 33.8284 49.9999C33.8284 40.7999 41.295 33.3333 50.4951 33.3333C59.6951 33.3333 67.1618 40.7999 67.1618 49.9999Z" fill="#1ABCFE"/>
</svg>
