<svg width="90" height="101" viewBox="0 0 90 101" fill="none" xmlns="http://www.w3.org/2000/svg">
<path fill-rule="evenodd" clip-rule="evenodd" d="M53.5697 11.7463L74.1044 23.6028C74.6973 22.9755 75.3776 22.4371 76.1244 22.0043C80.383 19.556 85.8151 21.0097 88.2888 25.2686C90.7371 29.5276 89.2835 34.9593 85.0245 37.433C84.2833 37.8598 83.4846 38.1779 82.6529 38.3774V62.0989C83.4755 62.2988 84.2655 62.6146 84.9992 63.0371C89.2835 65.5108 90.7371 70.9429 88.2634 75.2018C85.8151 79.4604 80.3576 80.9141 76.0987 78.4661C75.2736 77.9927 74.5303 77.3893 73.8975 76.6791L53.4878 88.4626C53.7867 89.3677 53.9385 90.3148 53.9374 91.2679C53.9374 96.1643 49.9593 100.168 45.0372 100.168C40.1152 100.168 36.1371 96.1896 36.1371 91.2679C36.1371 90.393 36.2628 89.5479 36.4971 88.7498L15.9679 76.8968C15.3816 77.5116 14.7108 78.04 13.9758 78.4661C9.69148 80.9141 4.25939 79.4604 1.81102 75.2018C-0.636993 70.9429 0.81668 65.5108 5.07528 63.0371C5.80892 62.6146 6.59893 62.2986 7.42157 62.0986V38.3774C6.58985 38.1779 5.79113 37.8598 5.04993 37.433C0.790988 34.985 -0.662685 29.5276 1.78568 25.2686C4.23404 21.0097 9.69113 19.556 13.9501 22.0043C14.6927 22.4348 15.3697 22.9698 15.9603 23.5927L36.5009 11.7332C36.2588 10.9113 36.1363 10.0589 36.1371 9.20215C36.1371 4.28077 40.1152 0.302002 45.0372 0.302002C49.9593 0.302002 53.9374 4.28042 53.9374 9.20215C53.9374 10.0868 53.8089 10.9405 53.5697 11.7463ZM51.4303 15.3995L72.014 27.2837C71.6863 28.4294 71.5923 29.6294 71.7376 30.8122C71.883 31.995 72.2647 33.1365 72.8601 34.1688C74.1131 36.3484 76.1542 37.7934 78.4196 38.3565V62.1076C78.304 62.1358 78.1891 62.1667 78.0749 62.1993L51.1911 15.6373C51.2724 15.5595 51.3522 15.4803 51.4303 15.3998V15.3995ZM38.8889 15.6425L12.0055 62.2038C11.8892 62.1702 11.7723 62.1389 11.6548 62.1101V38.3565C13.9202 37.7934 15.9613 36.3484 17.2143 34.1688C17.8109 33.1345 18.193 31.9906 18.3378 30.8054C18.4826 29.6202 18.3871 28.418 18.057 27.2705L38.6348 15.3897C38.7177 15.4755 38.8024 15.5599 38.8889 15.6421V15.6425ZM47.5241 17.7516L74.4013 64.3026C73.7856 64.89 73.2579 65.5632 72.8344 66.3013C72.412 67.0349 72.0961 67.825 71.8963 68.6476H18.1788C17.9787 67.8249 17.6626 67.0349 17.24 66.3013C16.8151 65.5683 16.2884 64.8992 15.6756 64.314L42.558 17.7537C43.3639 17.9858 44.1985 18.1031 45.0372 18.1023C45.9007 18.1023 46.735 17.9801 47.5241 17.7516ZM51.6192 85.272L72.0692 73.4648C72.0079 73.2721 71.9532 73.0773 71.905 72.8809H18.1674C18.1389 72.9965 18.108 73.111 18.075 73.2253L38.625 85.0904C39.4549 84.2275 40.4508 83.5414 41.5528 83.0735C42.6548 82.6056 43.84 82.3655 45.0372 82.3678C46.2763 82.3656 47.5021 82.6229 48.6357 83.1231C49.7693 83.6233 50.7856 84.3553 51.6192 85.272Z" fill="#E535AB"/>
</svg>
