<svg width="90" height="100" viewBox="0 0 92 101" fill="none" xmlns="http://www.w3.org/2000/svg">
<path d="M85.5371 50.018C85.5371 44.8776 81.3697 40.7101 76.2292 40.7101C75.8983 40.7101 75.5723 40.7278 75.2506 40.7618L88.035 3.05554H33.7057L46.4724 40.7289C46.284 40.717 46.0953 40.7109 45.9065 40.7105C40.7661 40.7105 36.5987 44.8772 36.5987 50.0183C36.5987 54.1734 39.3219 57.6914 43.0802 58.8883C41.0953 62.3266 38.5973 65.4236 35.7614 68.0994C31.905 71.7372 27.4917 74.4959 22.7183 76.1956C17.0351 73.276 14.3515 66.7832 16.7729 61.0904C17.0464 60.4473 17.3256 59.7957 17.5924 59.1469C21.7096 58.186 24.778 54.4951 24.778 50.085C24.778 44.9442 20.6105 40.7771 15.4697 40.7771C10.329 40.7771 6.16185 44.9442 6.16185 50.085C6.16185 53.2373 7.73006 56.0219 10.1277 57.7056C7.82395 62.9509 4.4374 68.4407 3.38224 74.8031C2.11769 82.428 3.37799 90.522 9.97288 95.093C25.3318 105.738 42.0037 88.4939 59.5821 84.1588C65.9527 82.5881 72.9458 82.8411 78.5585 79.5906C82.7735 77.1494 85.5524 73.1034 86.3407 68.5615C87.1202 64.0744 85.9843 59.6068 83.3723 55.9843C84.7736 54.3123 85.5402 52.1996 85.5371 50.018" fill="#99425B"/>
<path d="M84.1011 68.1724C83.4165 72.1159 80.981 75.5602 77.4194 77.6234C74.0991 79.5463 70.1205 80.1203 65.9077 80.7276C63.651 81.0529 61.3175 81.3898 59.0378 81.9518C53.0102 83.4381 47.1718 86.3382 41.5261 89.1426C30.227 94.755 20.4691 99.6013 11.2682 93.2243C4.52844 88.5534 4.83953 79.9109 5.6247 75.1751C6.35246 70.7873 8.31998 66.7463 10.2223 62.8385C10.5464 62.1744 10.8679 61.509 11.1867 60.8423C12.1457 61.2257 13.1519 61.4781 14.1782 61.5928C12.2415 67.9843 15.2872 74.9338 21.6795 78.2176L22.5546 78.6672L23.4808 78.3374C28.5344 76.5375 33.1912 73.6498 37.3214 69.7527C39.9912 67.2338 42.2868 64.4471 44.1736 61.4695C44.7472 61.556 45.3264 61.5995 45.9065 61.5995C51.7736 61.5995 56.632 57.2134 57.3839 51.5486C59.7854 51.4607 62.3361 51.46 64.7515 51.5479C65.5027 57.2134 70.3618 61.5998 76.2289 61.5998C78.6822 61.5998 80.9576 60.831 82.8323 59.525C84.1337 62.1891 84.6194 65.1866 84.1011 68.1724V68.1724ZM15.4701 43.0503C19.3491 43.0503 22.5047 46.2062 22.5047 50.0853C22.5047 51.4785 22.0958 52.7777 21.3939 53.8719C20.2246 55.6955 18.2369 56.9456 15.9534 57.1014C15.7936 57.1121 15.6323 57.1199 15.4701 57.1199C14.6055 57.1199 13.7775 56.9622 13.0118 56.6759C11.4698 56.0961 10.1785 54.9962 9.3606 53.5661C8.7533 52.5066 8.43422 51.3065 8.43513 50.0853C8.43513 46.2062 11.591 43.0503 15.4701 43.0503V43.0503ZM38.8723 50.0183C38.8723 46.4939 41.4776 43.5676 44.8627 43.0617C45.2036 43.0103 45.5522 42.9837 45.9069 42.9837C48.1621 42.9837 50.17 44.052 51.4576 45.7074C51.7801 46.1201 52.0556 46.5675 52.2789 47.0414C52.7161 47.9728 52.9424 48.9893 52.9415 50.0183C52.9415 50.5806 52.8734 51.1273 52.7484 51.6517C52.0628 54.5217 49.6155 56.7156 46.6166 57.0175C46.3834 57.0409 46.1467 57.0529 45.9069 57.0529C44.5538 57.054 43.2294 56.6625 42.0944 55.9258C40.1577 54.6712 38.8723 52.4925 38.8723 50.0183V50.0183ZM68.2327 41.6529C66.7018 43.1141 65.6002 44.9664 65.047 47.0091C62.3955 46.9114 59.7413 46.9114 57.0898 47.0091C56.4945 44.801 55.2608 42.853 53.6008 41.3734L60.8803 26.6544L68.2327 41.6529ZM36.8764 5.32952H84.8639L73.5297 38.7575C73.0421 38.8742 72.5626 39.0228 72.0944 39.2021L60.898 16.3619L49.6697 39.0657C49.1802 38.8977 48.68 38.7629 48.1724 38.6621L36.8764 5.32952ZM83.2635 50.0187C83.2635 50.7238 83.1582 51.4048 82.9644 52.0478C82.5046 53.5619 81.5497 54.8776 80.2528 55.7841C79.0742 56.6113 77.6689 57.0545 76.2289 57.0533C72.9809 57.0533 70.2409 54.8399 69.4352 51.8423C69.2752 51.2477 69.1942 50.6345 69.1943 50.0187C69.1943 49.0571 69.3885 48.1401 69.7392 47.3046C69.9202 46.8771 70.1431 46.4686 70.4046 46.0851C71.6706 44.2164 73.8068 42.9841 76.2289 42.9841C76.451 42.9841 76.67 42.9954 76.8872 43.016C80.4587 43.3487 83.2638 46.3614 83.2638 50.0187H83.2635ZM87.8104 50.0187C87.8104 44.3645 83.7365 39.6468 78.3707 38.6391L91.2062 0.782227H30.5349L43.3902 38.7156C38.2108 39.8682 34.3257 44.4967 34.3257 50.0183C34.3257 54.1645 36.5168 57.8062 39.8006 59.8527C38.2211 62.2061 36.3481 64.4206 34.2017 66.4458C30.7974 69.657 27.0052 72.0926 22.9167 73.6951C18.7985 71.1083 17.0578 66.2297 18.8655 61.98L19.0072 61.647L19.2729 61.022C23.7961 59.4442 27.0512 55.1392 27.0512 50.0853C27.0512 43.6991 21.8559 38.5038 15.4701 38.5038C9.08424 38.5038 3.8882 43.6991 3.8882 50.0853C3.8882 53.3085 5.21334 56.2274 7.34561 58.3292C6.94792 59.1718 6.54423 60.0115 6.13456 60.8483C4.18476 64.8525 1.97524 69.3909 1.13941 74.431C-0.520203 84.4405 2.15701 92.442 8.67819 96.9613C12.6352 99.7037 16.6538 100.782 20.6977 100.782C28.3119 100.782 36.0147 96.9567 43.5485 93.2144C48.9742 90.5198 54.5848 87.7331 60.1266 86.3662C62.1888 85.8577 64.3104 85.5516 66.5568 85.2278C71.0116 84.585 75.6177 83.9207 79.698 81.5578C84.4277 78.8182 87.6651 74.2227 88.5807 68.9505C89.3666 64.4241 88.4209 59.8906 86.1143 56.0456C87.2257 54.2318 87.8128 52.1455 87.8104 50.0183V50.0187Z" fill="white"/>
</svg>
