<svg width="90" height="100" viewBox="0 0 46 101" fill="none" xmlns="http://www.w3.org/2000/svg">
<path d="M23.0676 1.16418L25.7362 6.17631C26.3362 7.10124 26.9861 7.91993 27.7517 8.68237C29.9962 10.8989 32.0883 13.2645 34.0137 15.7631C38.5353 21.7002 41.5851 28.2934 43.7631 35.4241C45.0692 39.7801 45.7785 44.2485 45.8317 48.7669C46.0504 62.2752 41.4195 73.8744 32.0826 83.5143C30.5639 85.043 28.9232 86.4454 27.1767 87.7077C26.2518 87.7077 25.8143 86.9984 25.4331 86.3453C24.7389 85.1343 24.2768 83.8043 24.0707 82.4237C23.7426 80.7895 23.527 79.1552 23.6332 77.4679V76.7054C23.5582 76.5429 22.7427 1.54853 23.0676 1.16418Z" fill="#599636"/>
<path d="M23.0677 0.998615C22.9583 0.779881 22.8489 0.945494 22.7396 1.05174C22.7927 2.14541 22.4115 3.12033 21.8146 4.05151C21.1584 4.97645 20.2898 5.68577 19.4179 6.44821C14.5745 10.6417 10.7623 15.7069 7.70942 21.3721C3.64721 28.9965 1.55362 37.1678 0.95991 45.7703C0.688054 48.8732 1.94109 59.8224 2.91914 62.9815C5.5877 71.3684 10.3811 78.396 16.59 84.4956C18.1149 85.9642 19.746 87.3266 21.4334 88.6359C21.924 88.6359 21.9771 88.1984 22.0896 87.8735C22.3047 87.1781 22.4687 86.4679 22.5802 85.7486L23.6739 77.5805L23.0677 0.998615Z" fill="#6CAC48"/>
<path d="M25.7362 91.0263C25.8456 89.7764 26.4455 88.739 27.0986 87.7047C26.4424 87.4328 25.9549 86.8923 25.5737 86.2892C25.245 85.7182 24.9729 85.1164 24.7613 84.4924C23.9988 82.2051 23.8364 79.8053 23.6176 77.468V76.0525C23.3458 76.2712 23.2895 78.1211 23.2895 78.3961C23.1305 80.8664 22.8027 83.323 22.3083 85.7486C22.1458 86.7298 22.0365 87.7078 21.4334 88.5796C21.4334 88.689 21.4334 88.7984 21.4865 88.9608C22.4677 91.8481 22.7364 94.7885 22.902 97.7852V98.8788C22.902 100.185 22.8489 99.91 23.9332 100.347C24.3707 100.51 24.8582 100.566 25.2956 100.891C25.6237 100.891 25.6768 100.619 25.6768 100.401L25.5144 98.6038V93.5917C25.4612 92.7168 25.6237 91.8481 25.7331 91.0294L25.7362 91.0263Z" fill="#C2BFBF"/>
</svg>
