<svg width="90" height="100" viewBox="0 0 101 61" fill="#a77c05" xmlns="http://www.w3.org/2000/svg">
<path d="M23.8719 15.9366H42.7329V17.4285H25.6009V28.657H41.7112V30.1488H25.6009V42.4766H42.9293V43.9685H23.8719V15.9366ZM44.4225 15.9366H46.4265L55.3068 28.2644L64.3836 15.9366L76.7296 0.277588L56.4463 29.5599L66.8984 43.9685H64.8159L55.3068 30.8555L45.7585 43.9685H43.7152L54.2459 29.5599L44.4225 15.9366ZM67.645 17.4285V15.9366H89.1386V17.4285H79.2366V43.9685H77.5077V17.4285H67.645Z" fill="#a77c05"/>
<path d="M0.276123 15.9365H2.43727L32.2382 60.3166L19.9229 43.9683L2.08363 18.0566L2.00504 43.9683H0.276123V15.9365Z" fill="#a77c05"/>
<path d="M88.9643 42.0263C89.3218 42.0263 89.5825 41.754 89.5825 41.402C89.5825 41.05 89.3218 40.7776 88.9643 40.7776C88.6111 40.7776 88.3462 41.05 88.3462 41.402C88.3462 41.754 88.6111 42.0263 88.9643 42.0263ZM90.6632 40.3837C90.6632 41.4229 91.4159 42.1018 92.5135 42.1018C93.6825 42.1018 94.389 41.402 94.389 40.1868V35.9084H93.447V40.1826C93.447 40.8572 93.1064 41.2176 92.5051 41.2176C91.9668 41.2176 91.601 40.8824 91.5883 40.3837H90.6632ZM95.6211 40.3292C95.6883 41.4103 96.5924 42.1018 97.9381 42.1018C99.3762 42.1018 100.276 41.3768 100.276 40.2203C100.276 39.311 99.7631 38.8081 98.5184 38.519L97.8498 38.3556C97.0592 38.1712 96.7396 37.924 96.7396 37.4923C96.7396 36.9476 97.2358 36.5914 97.9801 36.5914C98.6866 36.5914 99.1744 36.9392 99.2627 37.4965H100.179C100.125 36.4783 99.2248 35.7617 97.9927 35.7617C96.6681 35.7617 95.785 36.4783 95.785 37.5552C95.785 38.4436 96.2855 38.9715 97.383 39.2272L98.1651 39.4157C98.9683 39.6043 99.3216 39.8809 99.3216 40.3418C99.3216 40.8782 98.7665 41.2679 98.0096 41.2679C97.198 41.2679 96.6345 40.9033 96.5546 40.3292H95.6211Z" fill="#a77c05"/>
</svg>
