<svg width="90" height="100" viewBox="0 0 101 96" fill="none" xmlns="http://www.w3.org/2000/svg">
<path d="M69.3268 66.8344C73.017 66.4524 75.8166 63.2711 75.6893 59.4532C75.5623 55.6356 72.3807 52.5813 68.5631 52.5813H68.3088C64.3635 52.7086 61.3096 56.0172 61.4369 59.9622C61.5642 61.8711 62.3275 63.5254 63.4728 64.6707C59.1463 73.1973 52.5291 79.4329 42.6033 84.6504C35.8587 88.2137 28.8599 89.4864 21.8611 88.5957C16.1345 87.8321 11.6806 85.2872 8.8806 81.0872C4.80872 74.8516 4.42708 68.1067 7.86302 61.3622C10.281 56.5262 14.0982 52.9629 16.5162 51.1813C16.0072 49.527 15.2435 46.7274 14.8619 44.6915C-3.59012 58.0536 -1.68113 76.1243 3.91809 84.6504C8.11731 91.0137 16.6435 94.9586 26.0603 94.9586C28.6052 94.9586 31.1501 94.7039 33.6955 94.068C49.9842 90.8864 62.3279 81.2145 69.3268 66.8344V66.8344ZM91.7236 51.0543C82.0522 39.7282 67.7998 33.4926 51.5111 33.4926H49.4752C48.3299 31.202 45.9119 29.6747 43.2396 29.6747H42.9849C39.0404 29.802 35.9865 33.1106 36.1134 37.0559C36.2408 40.8735 39.422 43.9278 43.2396 43.9278H43.4939C46.2935 43.8004 48.7115 42.0188 49.7295 39.6008H52.0201C61.6916 39.6008 70.8537 42.4004 79.1256 47.8727C85.4881 52.0723 90.0694 57.5446 92.6143 64.1618C94.7776 69.5067 94.6502 74.7243 92.3596 79.1786C88.7967 85.9231 82.8158 89.6137 74.926 89.6137C69.8357 89.6137 65.0002 88.0864 62.4549 86.9411C61.0553 88.2137 58.5099 90.2497 56.7283 91.5227C62.2006 94.0676 67.7998 95.4676 73.1443 95.4676C85.3608 95.4676 94.3959 88.7227 97.8319 81.9782C101.522 74.5969 101.267 61.8711 91.7236 51.0543V51.0543ZM27.0783 68.9973C27.2056 72.8153 30.3869 75.8692 34.2045 75.8692H34.4591C38.4041 75.7422 41.458 72.4332 41.3306 68.4883C41.2037 64.6704 38.022 61.6165 34.2045 61.6165H33.9502C33.6955 61.6165 33.3134 61.6164 33.0595 61.7434C27.8419 53.0899 25.6787 43.6731 26.4423 33.4922C26.9509 25.8567 29.4962 19.2391 33.9502 13.7668C37.6404 9.05825 44.7666 6.76763 49.6025 6.64067C63.0912 6.38599 68.8174 23.184 69.1994 29.929C70.8537 30.3106 73.6533 31.2016 75.5623 31.8379C74.035 11.2223 61.3096 0.532471 49.0935 0.532471C37.6404 0.532471 27.0783 8.80435 22.8787 21.0211C17.0251 37.3102 20.8427 52.9629 27.9689 65.3071C27.333 66.1977 26.9509 67.5977 27.0783 68.9977V68.9973Z" fill="#764ABC"/>
</svg>
