<svg width="90" height="100" viewBox="0 0 101 61" fill="none" xmlns="http://www.w3.org/2000/svg">
<path d="M50.8284 0.493286C37.4946 0.493286 29.1615 7.15827 25.8277 20.487C30.8284 13.822 36.6618 11.3236 43.3281 12.9892C47.132 13.9396 49.8505 16.6993 52.8604 19.753C57.7622 24.7273 63.4356 30.4845 75.829 30.4845C89.1615 30.4845 97.4959 23.8195 100.828 10.4895C95.829 17.1545 89.9956 19.6542 83.3281 17.9886C79.5254 17.0382 76.8069 14.2784 73.797 11.2248C68.8951 6.25044 63.2205 0.493286 50.8284 0.493286V0.493286ZM25.8277 30.4845C12.4952 30.4845 4.16087 37.1495 0.828369 50.4794C5.82774 43.8145 11.6612 41.3148 18.3287 42.9816C22.1314 43.9333 24.8499 46.6918 27.8598 49.7442C32.7616 54.7185 38.4362 60.4769 50.8284 60.4769C64.1621 60.4769 72.4952 53.8119 75.829 40.482C70.8284 47.147 64.9949 49.6466 58.3287 47.9798C54.5248 47.0307 51.8062 44.2696 48.7964 41.2172C43.8945 36.2429 38.2211 30.4845 25.8277 30.4845V30.4845Z" fill="#06B6D4"/>
</svg>
