<svg width="101" height="81" viewBox="0 0 101 81" fill="none" xmlns="http://www.w3.org/2000/svg">
<path fill-rule="evenodd" clip-rule="evenodd" d="M21.427 0.763916C15.7212 0.763916 11.4991 5.75806 11.6882 11.1741C11.8696 16.3774 11.6339 23.1165 9.93739 28.6122C8.23485 34.1233 5.3575 37.6157 0.656723 38.0639V43.1249C5.3575 43.5741 8.23485 47.0647 9.93719 52.5766C11.6339 58.0723 11.8694 64.8114 11.688 70.0147C11.4989 75.4299 15.721 80.4249 21.4278 80.4249H79.894C85.5999 80.4249 89.8212 75.4307 89.6321 70.0147C89.4507 64.8114 89.6864 58.0723 91.3829 52.5766C93.0854 47.0647 95.9557 43.5727 100.657 43.1249V38.0639C95.9559 37.6147 93.0856 34.1241 91.3829 28.6122C89.6862 23.1172 89.4507 16.3774 89.6321 11.1741C89.8212 5.75884 85.5999 0.763916 79.894 0.763916H21.4263H21.427ZM68.4534 49.8004C68.4534 57.2581 62.8907 61.7809 53.6593 61.7809H37.9448C37.4953 61.7809 37.0642 61.6023 36.7463 61.2845C36.4285 60.9666 36.2499 60.5355 36.2499 60.086V21.103C36.2499 20.6535 36.4285 20.2223 36.7463 19.9045C37.0642 19.5866 37.4953 19.4081 37.9448 19.4081H53.5698C61.2673 19.4081 66.319 23.5776 66.319 29.9792C66.319 34.4723 62.9206 38.4948 58.5911 39.1995V39.4338C64.4848 40.0803 68.4534 44.1624 68.4534 49.8004V49.8004ZM51.9458 24.7809H42.9856V37.4372H50.5323C56.3663 37.4372 59.5831 35.0879 59.5831 30.8889C59.5825 26.9538 56.8169 24.7809 51.9458 24.7809ZM42.9856 42.4588V56.4063H52.2755C58.3497 56.4063 61.5671 53.969 61.5671 49.3885C61.5671 44.8081 58.2595 42.4581 51.8848 42.4581H42.9856V42.4588Z" fill="#7952B3"/>
</svg>
