<svg width="24" height="24" viewBox="0 0 24 24" fill="none" xmlns="http://www.w3.org/2000/svg">
<rect width="24" height="24" fill="#0A66C2"/>
<g clip-path="url(#clip0_103_20)">
<path d="M3 5.97499C3 5.40259 3.20271 4.93037 3.60811 4.55832C4.01351 4.18627 4.54055 4.00024 5.18919 4.00024C5.82626 4.00024 6.34169 4.1834 6.73552 4.54974C7.14092 4.92752 7.34363 5.41976 7.34363 6.0265C7.34363 6.576 7.14672 7.0339 6.7529 7.40024C6.3475 7.77802 5.81467 7.9669 5.15444 7.9669H5.13707C4.49999 7.9669 3.98456 7.77802 3.59073 7.40024C3.19691 7.02246 3 6.54737 3 5.97499ZM3.22587 21.0002V9.52953H7.08301V21.0002H3.22587ZM9.22008 21.0002H13.0772V14.5952C13.0772 14.1945 13.1236 13.8854 13.2162 13.6679C13.3784 13.2787 13.6245 12.9495 13.9546 12.6805C14.2847 12.4115 14.6988 12.277 15.1969 12.277C16.4942 12.277 17.1429 13.1413 17.1429 14.8699V21.0002H21V14.4235C21 12.7292 20.5946 11.4442 19.7838 10.5684C18.973 9.69266 17.9016 9.25478 16.5695 9.25478C15.0753 9.25478 13.9112 9.89013 13.0772 11.1608V11.1952H13.0598L13.0772 11.1608V9.52953H9.22008C9.24324 9.89585 9.25483 11.0349 9.25483 12.9467C9.25483 14.8585 9.24324 17.543 9.22008 21.0002Z" fill="white"/>
</g>
<defs>
<clipPath id="clip0_103_20">
<rect width="18" height="17" fill="white" transform="translate(3 4)"/>
</clipPath>
</defs>
</svg>
